<?xml version="1.0" encoding="UTF-8"?>
<svg width="140px" height="75px" viewBox="0 0 140 75" version="1.1" xmlns="http://www.w3.org/2000/svg" xmlns:xlink="http://www.w3.org/1999/xlink">
    <!-- Generator: Sketch Beta 46.2 (44496) - http://www.bohemiancoding.com/sketch -->
    <title>Logo</title>
    <desc>Created with Sketch Beta.</desc>
    <defs></defs>
    <g id="Delivery" stroke="none" stroke-width="1" fill="none" fill-rule="evenodd">
        <g id="Header-examples" transform="translate(-150.000000, -53.000000)" fill="#FFFFFF">
            <g id="Header---Blue">
                <g id="Group-3" transform="translate(150.000000, 53.000000)">
                    <path d="M16,0 L140,0 L124,75 L0,75 L16,0 Z M25.4375,33.8 C25.5458339,33.933334 25.6916657,34 25.875,34 L33.825,34 C35.691676,34 37.1624946,33.5041716 38.2375,32.5125 C39.3125054,31.5208284 39.9999985,30.3166738 40.3,28.9 C40.3833337,28.4833312 40.425,28.1250015 40.425,27.825 C40.425,26.6583275 39.9750045,25.708337 39.075,24.975 C39.5083355,24.7249987 39.9749975,24.3125029 40.475,23.7375 C40.9750025,23.1624971 41.3166657,22.441671 41.5,21.575 C41.566667,21.2083315 41.6,20.9166678 41.6,20.7 C41.6,19.9999965 41.4375016,19.3291699 41.1125,18.6875 C40.7874984,18.0458301 40.258337,17.5208354 39.525,17.1125 C38.791663,16.7041646 37.8500057,16.5 36.7,16.5 L29.575,16.5 C29.3916657,16.5 29.2208341,16.566666 29.0625,16.7 C28.9041659,16.833334 28.8083335,16.9916657 28.775,17.175 L25.325,33.325 C25.2916665,33.5083343 25.3291661,33.666666 25.4375,33.8 Z M47.275,26.725 L54.8,26.725 C54.9833342,26.725 55.1583325,26.658334 55.325,26.525 C55.4916675,26.391666 55.5916665,26.2333342 55.625,26.05 L56,24.275 C56.0333335,24.0916658 56.0000005,23.933334 55.9,23.8 C55.7999995,23.666666 55.6583342,23.6 55.475,23.6 L47.95,23.6 L48.8,19.625 L56.875,19.625 C57.0583342,19.625 57.2291659,19.558334 57.3875,19.425 C57.5458341,19.291666 57.6416665,19.1333343 57.675,18.95 L58.075,17.175 C58.1083335,16.9916657 58.0708339,16.833334 57.9625,16.7 C57.8541661,16.566666 57.7083342,16.5 57.525,16.5 L46.75,16.5 C46.5666657,16.5 46.3958341,16.566666 46.2375,16.7 C46.0791659,16.833334 45.9833335,16.9916657 45.95,17.175 L42.5,33.325 C42.4666665,33.5083343 42.5041661,33.666666 42.6125,33.8 C42.7208339,33.933334 42.8666657,34 43.05,34 L54.025,34 C54.2083342,34 54.3791659,33.933334 54.5375,33.8 C54.6958341,33.666666 54.7916665,33.5083343 54.825,33.325 L55.2,31.55 C55.2166667,31.5166665 55.225,31.4583338 55.225,31.375 C55.225,31.241666 55.1750005,31.1250005 55.075,31.025 C54.9749995,30.9249995 54.8416675,30.875 54.675,30.875 L46.4,30.875 L47.275,26.725 Z M73.5375,16.7 C73.4291661,16.566666 73.2833342,16.5 73.1,16.5 L60.725,16.5 C60.5416657,16.5 60.3708341,16.566666 60.2125,16.7 C60.0541659,16.833334 59.9583335,16.9916657 59.925,17.175 L59.525,18.95 C59.4916665,19.1333343 59.5291661,19.291666 59.6375,19.425 C59.7458339,19.558334 59.8916657,19.625 60.075,19.625 L64.575,19.625 L61.65,33.325 C61.6166665,33.5083343 61.6541661,33.666666 61.7625,33.8 C61.8708339,33.933334 62.0166657,34 62.2,34 L64.225,34 C64.4083342,34 64.5791659,33.933334 64.7375,33.8 C64.8958341,33.666666 64.9916665,33.5083343 65.025,33.325 L67.95,19.625 L72.45,19.625 C72.6333342,19.625 72.8041659,19.558334 72.9625,19.425 C73.1208341,19.291666 73.2166665,19.1333343 73.25,18.95 L73.65,17.175 C73.6833335,16.9916657 73.6458339,16.833334 73.5375,16.7 Z M88.2875,16.7 C88.1791661,16.566666 88.0333342,16.5 87.85,16.5 L75.475,16.5 C75.2916657,16.5 75.1208341,16.566666 74.9625,16.7 C74.8041659,16.833334 74.7083335,16.9916657 74.675,17.175 L74.275,18.95 C74.2416665,19.1333343 74.2791661,19.291666 74.3875,19.425 C74.4958339,19.558334 74.6416657,19.625 74.825,19.625 L79.325,19.625 L76.4,33.325 C76.3666665,33.5083343 76.4041661,33.666666 76.5125,33.8 C76.6208339,33.933334 76.7666657,34 76.95,34 L78.975,34 C79.1583342,34 79.3291659,33.933334 79.4875,33.8 C79.6458341,33.666666 79.7416665,33.5083343 79.775,33.325 L82.7,19.625 L87.2,19.625 C87.3833342,19.625 87.5541659,19.558334 87.7125,19.425 C87.8708341,19.291666 87.9666665,19.1333343 88,18.95 L88.4,17.175 C88.4333335,16.9916657 88.3958339,16.833334 88.2875,16.7 Z M92.2,26.725 L99.725,26.725 C99.9083343,26.725 100.083333,26.658334 100.25,26.525 C100.416668,26.391666 100.516667,26.2333342 100.55,26.05 L100.925,24.275 C100.958334,24.0916658 100.925001,23.933334 100.825,23.8 C100.725,23.666666 100.583334,23.6 100.4,23.6 L92.875,23.6 L93.725,19.625 L101.8,19.625 C101.983334,19.625 102.154166,19.558334 102.3125,19.425 C102.470834,19.291666 102.566667,19.1333343 102.6,18.95 L103,17.175 C103.033334,16.9916657 102.995834,16.833334 102.8875,16.7 C102.779166,16.566666 102.633334,16.5 102.45,16.5 L91.675,16.5 C91.4916658,16.5 91.3208341,16.566666 91.1625,16.7 C91.0041659,16.833334 90.9083335,16.9916657 90.875,17.175 L87.425,33.325 C87.3916665,33.5083343 87.4291661,33.666666 87.5375,33.8 C87.6458339,33.933334 87.7916658,34 87.975,34 L98.95,34 C99.1333343,34 99.3041659,33.933334 99.4625,33.8 C99.6208341,33.666666 99.7166665,33.5083343 99.75,33.325 L100.125,31.55 C100.141667,31.5166665 100.15,31.4583338 100.15,31.375 C100.15,31.241666 100.100001,31.1250005 100,31.025 C99.8999995,30.9249995 99.7666675,30.875 99.6,30.875 L91.325,30.875 L92.2,26.725 Z M117.3875,17.6375 C116.379162,16.8791629 115.016675,16.5 113.3,16.5 L107.1,16.5 C106.916666,16.5 106.745834,16.566666 106.5875,16.7 C106.429166,16.833334 106.333334,16.9916657 106.3,17.175 L102.85,33.325 C102.816667,33.5083343 102.854166,33.666666 102.9625,33.8 C103.070834,33.933334 103.216666,34 103.4,34 L105.425,34 C105.608334,34 105.779166,33.933334 105.9375,33.8 C106.095834,33.666666 106.191667,33.5083343 106.225,33.325 L107.475,27.5 L111.125,27.5 L113.15,33.325 C113.283334,33.7750023 113.599998,34 114.1,34 L115.9,34 C116.100001,34 116.270833,33.9125009 116.4125,33.7375 C116.554167,33.5624991 116.6,33.375001 116.55,33.175 L114.4,27 C115.716673,26.533331 116.704163,25.8958374 117.3625,25.0875 C118.020837,24.2791626 118.491665,23.241673 118.775,21.975 C118.858334,21.6249983 118.9,21.2250023 118.9,20.775 C118.9,19.44166 118.395838,18.3958371 117.3875,17.6375 Z M34.8875,41.7 C34.7791661,41.566666 34.6333342,41.5 34.45,41.5 L23.775,41.5 C23.5916657,41.5 23.4208341,41.566666 23.2625,41.7 C23.1041659,41.833334 23.0083335,41.9916657 22.975,42.175 L19.525,58.325 C19.4916665,58.5083342 19.5291661,58.666666 19.6375,58.8 C19.7458339,58.933334 19.8916657,59 20.075,59 L22.1,59 C22.2833342,59 22.4541659,58.933334 22.6125,58.8 C22.7708341,58.666666 22.8666665,58.5083342 22.9,58.325 L24.125,52.6 L31.6,52.6 C31.7833342,52.6 31.9541659,52.533334 32.1125,52.4 C32.2708341,52.266666 32.3749997,52.1083342 32.425,51.925 L32.8,50.15 C32.8333335,49.9666658 32.7958339,49.808334 32.6875,49.675 C32.5791661,49.541666 32.4333342,49.475 32.25,49.475 L24.775,49.475 L25.825,44.625 L33.8,44.625 C33.9833342,44.625 34.1541659,44.558334 34.3125,44.425 C34.4708341,44.291666 34.5666665,44.1333343 34.6,43.95 L35,42.175 C35.0333335,41.9916657 34.9958339,41.833334 34.8875,41.7 Z M46.8625,41.7 C46.7541661,41.566666 46.5750013,41.5 46.325,41.5 L43.5,41.5 C43.2499988,41.5 43.0458341,41.566666 42.8875,41.7 C42.7291659,41.833334 42.5583343,42.0499985 42.375,42.35 L32.9,58.15 C32.833333,58.283334 32.8,58.383333 32.8,58.45 C32.8,58.6000007 32.8541661,58.7291661 32.9625,58.8375 C33.0708339,58.9458339 33.2083325,59 33.375,59 L35.375,59 C35.6583348,59 35.8833325,58.9416672 36.05,58.825 C36.2166675,58.7083327 36.3583328,58.5583343 36.475,58.375 L38.125,55.6 L46.025,55.6 L46.525,58.375 C46.6083338,58.7916687 46.8916643,59 47.375,59 L49.05,59 C49.2833345,59 49.4874991,58.9125009 49.6625,58.7375 C49.8375009,58.5624991 49.9083335,58.3666678 49.875,58.15 L47.1,42.35 C47.0499998,42.0499985 46.9708339,41.833334 46.8625,41.7 Z M67.2875,46.3375 C67.4458341,46.2124994 67.5333332,46.050001 67.55,45.85 C67.5666667,45.7666663 67.575,45.6500008 67.575,45.5 C67.575,44.83333 67.3333357,44.1708366 66.85,43.5125 C66.3666642,42.8541634 65.658338,42.3125021 64.725,41.8875 C63.791662,41.4624979 62.691673,41.25 61.425,41.25 C59.3416562,41.25 57.6708396,41.683329 56.4125,42.55 C55.1541604,43.416671 54.3750015,44.616659 54.075,46.15 C53.9916662,46.616669 53.95,47.016665 53.95,47.35 C53.95,48.3666717 54.2708301,49.2124966 54.9125,49.8875 C55.5541699,50.5625034 56.54166,51.0749982 57.875,51.425 L59.175,51.75 C60.1916717,52.0000012 60.9416642,52.1999992 61.425,52.35 C61.9083357,52.5000007 62.2874986,52.6791656 62.5625,52.8875 C62.8375014,53.0958344 62.975,53.366665 62.975,53.7 C62.975,53.8500007 62.9666667,53.958333 62.95,54.025 C62.7999992,54.7250035 62.3208374,55.2499983 61.5125,55.6 C60.7041626,55.9500017 59.7500055,56.125 58.65,56.125 C57.516661,56.125 56.7125024,55.9625016 56.2375,55.6375 C55.7624976,55.3124984 55.4416675,54.8750027 55.275,54.325 C55.2249997,54.124999 55.1291674,53.9750005 54.9875,53.875 C54.8458326,53.7749995 54.641668,53.725 54.375,53.725 L52.625,53.725 C52.424999,53.725 52.2458341,53.7874994 52.0875,53.9125 C51.9291659,54.0375006 51.8416667,54.199999 51.825,54.4 C51.7916665,54.6333345 51.775,54.7999995 51.775,54.9 C51.775,55.7500043 52.0958301,56.5041634 52.7375,57.1625 C53.3791699,57.8208366 54.2166615,58.3333315 55.25,58.7 C56.2833385,59.0666685 57.3583277,59.25 58.475,59.25 C60.8583452,59.25 62.6708271,58.816671 63.9125,57.95 C65.1541729,57.083329 65.941665,55.8583412 66.275,54.275 C66.341667,53.9583317 66.375,53.6166685 66.375,53.25 C66.375,51.116656 64.808349,49.7083368 61.675,49.025 C60.5083275,48.758332 59.6333362,48.5375009 59.05,48.3625 C58.4666637,48.1874991 58.0375014,47.9833345 57.7625,47.75 C57.4874986,47.5166655 57.35,47.2166685 57.35,46.85 C57.35,46.783333 57.3666665,46.6333345 57.4,46.4 C57.5166672,45.799997 57.9249965,45.3125019 58.625,44.9375 C59.3250035,44.5624981 60.1249955,44.375 61.025,44.375 C61.9416712,44.375 62.6374976,44.5166653 63.1125,44.8 C63.5875024,45.0833348 63.9166657,45.458331 64.1,45.925 C64.166667,46.125001 64.266666,46.2749995 64.4,46.375 C64.533334,46.4750005 64.733332,46.525 65,46.525 L66.75,46.525 C66.950001,46.525 67.1291659,46.4625006 67.2875,46.3375 Z M83.8875,41.7 C83.7791661,41.566666 83.6333342,41.5 83.45,41.5 L71.075,41.5 C70.8916657,41.5 70.7208341,41.566666 70.5625,41.7 C70.4041659,41.833334 70.3083335,41.9916657 70.275,42.175 L69.875,43.95 C69.8416665,44.1333343 69.8791661,44.291666 69.9875,44.425 C70.0958339,44.558334 70.2416657,44.625 70.425,44.625 L74.925,44.625 L72,58.325 C71.9666665,58.5083342 72.0041661,58.666666 72.1125,58.8 C72.2208339,58.933334 72.3666657,59 72.55,59 L74.575,59 C74.7583342,59 74.9291659,58.933334 75.0875,58.8 C75.2458341,58.666666 75.3416665,58.5083342 75.375,58.325 L78.3,44.625 L82.8,44.625 C82.9833342,44.625 83.1541659,44.558334 83.3125,44.425 C83.4708341,44.291666 83.5666665,44.1333343 83.6,43.95 L84,42.175 C84.0333335,41.9916657 83.9958339,41.833334 83.8875,41.7 Z M87.8,51.725 L95.325,51.725 C95.5083342,51.725 95.6833325,51.658334 95.85,51.525 C96.0166675,51.391666 96.1166665,51.2333342 96.15,51.05 L96.525,49.275 C96.5583335,49.0916658 96.5250005,48.933334 96.425,48.8 C96.3249995,48.666666 96.1833342,48.6 96,48.6 L88.475,48.6 L89.325,44.625 L97.4,44.625 C97.5833342,44.625 97.7541659,44.558334 97.9125,44.425 C98.0708341,44.291666 98.1666665,44.1333343 98.2,43.95 L98.6,42.175 C98.6333335,41.9916657 98.5958339,41.833334 98.4875,41.7 C98.3791661,41.566666 98.2333342,41.5 98.05,41.5 L87.275,41.5 C87.0916657,41.5 86.9208341,41.566666 86.7625,41.7 C86.6041659,41.833334 86.5083335,41.9916657 86.475,42.175 L83.025,58.325 C82.9916665,58.5083342 83.0291661,58.666666 83.1375,58.8 C83.2458339,58.933334 83.3916657,59 83.575,59 L94.55,59 C94.7333342,59 94.9041659,58.933334 95.0625,58.8 C95.2208341,58.666666 95.3166665,58.5083342 95.35,58.325 L95.725,56.55 C95.7416667,56.5166665 95.75,56.4583338 95.75,56.375 C95.75,56.241666 95.7000005,56.1250005 95.6,56.025 C95.4999995,55.9249995 95.3666675,55.875 95.2,55.875 L86.925,55.875 L87.8,51.725 Z M112.9875,42.6375 C111.979162,41.8791629 110.616675,41.5 108.9,41.5 L102.7,41.5 C102.516666,41.5 102.345834,41.566666 102.1875,41.7 C102.029166,41.833334 101.933334,41.9916657 101.9,42.175 L98.45,58.325 C98.4166665,58.5083342 98.4541661,58.666666 98.5625,58.8 C98.6708339,58.933334 98.8166658,59 99,59 L101.025,59 C101.208334,59 101.379166,58.933334 101.5375,58.8 C101.695834,58.666666 101.791667,58.5083342 101.825,58.325 L103.075,52.5 L106.725,52.5 L108.75,58.325 C108.883334,58.7750023 109.199998,59 109.7,59 L111.5,59 C111.700001,59 111.870833,58.9125009 112.0125,58.7375 C112.154167,58.5624991 112.2,58.375001 112.15,58.175 L110,52 C111.316673,51.533331 112.304163,50.8958374 112.9625,50.0875 C113.620837,49.2791626 114.091665,48.241673 114.375,46.975 C114.458334,46.6249983 114.5,46.2250023 114.5,45.775 C114.5,44.44166 113.995838,43.3958371 112.9875,42.6375 Z M107.35,49.375 C108.383339,49.375 109.204164,49.1958351 109.8125,48.8375 C110.420836,48.4791649 110.816666,47.8583378 111,46.975 C111.05,46.7249987 111.075,46.4916678 111.075,46.275 C111.075,45.6583303 110.845836,45.2291679 110.3875,44.9875 C109.929164,44.7458321 109.258338,44.625 108.375,44.625 L104.75,44.625 L103.725,49.375 L107.35,49.375 Z M44.275,45.35 L40,52.475 L45.5,52.475 L44.275,45.35 Z M111.75,24.375 C112.783339,24.375 113.604164,24.1958351 114.2125,23.8375 C114.820836,23.4791649 115.216666,22.8583378 115.4,21.975 C115.45,21.7249987 115.475,21.4916678 115.475,21.275 C115.475,20.6583303 115.245836,20.2291679 114.7875,19.9875 C114.329164,19.7458321 113.658338,19.625 112.775,19.625 L109.15,19.625 L108.125,24.375 L111.75,24.375 Z M33.85,30.875 C34.7333378,30.875 35.4374974,30.6833352 35.9625,30.3 C36.4875026,29.9166647 36.816666,29.4000032 36.95,28.75 C36.9833335,28.6333327 37,28.4666677 37,28.25 C37,27.7499975 36.8083353,27.3500015 36.425,27.05 C36.0416648,26.7499985 35.483337,26.6 34.75,26.6 L30.125,26.6 L29.225,30.875 L33.85,30.875 Z M31.625,19.625 L30.8,23.475 L35.225,23.475 C36.9083418,23.475 37.8749988,22.8333397 38.125,21.55 C38.1583335,21.416666 38.175,21.2416678 38.175,21.025 C38.175,20.558331 38.0041684,20.2083345 37.6625,19.975 C37.3208316,19.7416655 36.783337,19.625 36.05,19.625 L31.625,19.625 Z" id="Logo"></path>
                </g>
            </g>
        </g>
    </g>
</svg>