<?xml version="1.0" standalone="no"?>
<!DOCTYPE svg PUBLIC "-//W3C//DTD SVG 20010904//EN"
 "http://www.w3.org/TR/2001/REC-SVG-20010904/DTD/svg10.dtd">
<svg version="1.0" xmlns="http://www.w3.org/2000/svg"
 width="420.000000pt" height="420.000000pt" viewBox="0 0 420.000000 420.000000"
 preserveAspectRatio="xMidYMid meet">

<g transform="translate(0.000000,420.000000) scale(0.100000,-0.100000)"
fill="white" stroke="white">
<path d="M3240 3669 c-603 -52 -1165 -314 -1595 -744 -134 -134 -221 -241
-329 -405 -100 -152 -139 -222 -209 -382 -128 -291 -196 -583 -213 -917 l-7
-134 -59 -99 c-84 -143 -198 -374 -198 -403 0 -30 41 -75 68 -75 36 0 60 33
142 195 44 88 104 198 133 245 l53 85 134 12 c314 28 587 98 853 218 497 225
930 619 1181 1076 41 75 44 97 17 130 -18 22 -28 24 -137 29 l-119 5 208 118
c147 84 211 126 221 145 23 45 85 279 105 402 21 122 41 320 41 408 0 43 -5
58 -25 77 -21 22 -32 25 -97 24 -40 -1 -116 -5 -168 -10z m140 -188 c0 -120
-53 -424 -101 -576 l-19 -60 -306 -175 c-169 -96 -317 -183 -330 -193 -34 -26
-33 -79 2 -106 25 -20 40 -21 216 -21 l189 0 -21 -38 c-12 -22 -65 -97 -118
-168 -169 -226 -412 -448 -662 -604 -206 -129 -517 -252 -765 -304 -138 -28
-313 -51 -322 -43 -11 12 182 257 367 467 51 58 171 187 266 287 147 154 174
187 174 213 0 39 -31 70 -70 70 -35 0 -50 -13 -231 -205 -229 -244 -421 -466
-577 -670 l-23 -30 5 72 c20 248 116 561 256 830 124 240 260 422 461 618 238
232 499 401 807 524 221 88 538 157 735 160 l67 1 0 -49z"/>
</g>
</svg>